<svg width="183" height="74" viewBox="0 0 183 74" fill="none" xmlns="http://www.w3.org/2000/svg">
    <path d="M146 7C156.544 7 173 7 173 7V13C149.965 13 152.133 13 146 13V7Z"
        fill="url(#paint0_linear_215_96)" />
    <path d="M3 68C70.1702 68 175 68 175 68V74C28.2578 74 42.068 74 3 74V68Z"
        fill="url(#paint1_linear_215_96)" />
    <path
        d="M11.65 18V55H3.1V18H11.65ZM45.3961 27.1V55H36.8461V51.2C35.9794 52.4333 34.7961 53.4333 33.2961 54.2C31.8294 54.9333 30.1961 55.3 28.3961 55.3C26.2628 55.3 24.3794 54.8333 22.7461 53.9C21.1128 52.9333 19.8461 51.55 18.9461 49.75C18.0461 47.95 17.5961 45.8333 17.5961 43.4V27.1H26.0961V42.25C26.0961 44.1167 26.5794 45.5667 27.5461 46.6C28.5128 47.6333 29.8128 48.15 31.4461 48.15C33.1128 48.15 34.4294 47.6333 35.3961 46.6C36.3628 45.5667 36.8461 44.1167 36.8461 42.25V27.1H45.3961ZM60.0875 31.75C61.0875 30.2167 62.3375 29.0167 63.8375 28.15C65.3375 27.25 67.0042 26.8 68.8375 26.8V35.85H66.4875C64.3542 35.85 62.7542 36.3167 61.6875 37.25C60.6208 38.15 60.0875 39.75 60.0875 42.05V55H51.5375V27.1H60.0875V31.75ZM84.2742 55.4C81.8409 55.4 79.6742 54.9833 77.7742 54.15C75.8742 53.3167 74.3742 52.1833 73.2742 50.75C72.1742 49.2833 71.5576 47.65 71.4242 45.85H79.8742C79.9742 46.8167 80.4242 47.6 81.2242 48.2C82.0242 48.8 83.0076 49.1 84.1742 49.1C85.2409 49.1 86.0576 48.9 86.6242 48.5C87.2242 48.0667 87.5242 47.5167 87.5242 46.85C87.5242 46.05 87.1076 45.4667 86.2742 45.1C85.4409 44.7 84.0909 44.2667 82.2242 43.8C80.2242 43.3333 78.5576 42.85 77.2242 42.35C75.8909 41.8167 74.7409 41 73.7742 39.9C72.8076 38.7667 72.3242 37.25 72.3242 35.35C72.3242 33.75 72.7576 32.3 73.6242 31C74.5242 29.6667 75.8242 28.6167 77.5242 27.85C79.2576 27.0833 81.3076 26.7 83.6742 26.7C87.1742 26.7 89.9242 27.5667 91.9242 29.3C93.9576 31.0333 95.1242 33.3333 95.4242 36.2H87.5242C87.3909 35.2333 86.9576 34.4667 86.2242 33.9C85.5242 33.3333 84.5909 33.05 83.4242 33.05C82.4242 33.05 81.6576 33.25 81.1242 33.65C80.5909 34.0167 80.3242 34.5333 80.3242 35.2C80.3242 36 80.7409 36.6 81.5742 37C82.4409 37.4 83.7742 37.8 85.5742 38.2C87.6409 38.7333 89.3242 39.2667 90.6242 39.8C91.9242 40.3 93.0576 41.1333 94.0242 42.3C95.0242 43.4333 95.5409 44.9667 95.5742 46.9C95.5742 48.5333 95.1076 50 94.1742 51.3C93.2742 52.5667 91.9576 53.5667 90.2242 54.3C88.5242 55.0333 86.5409 55.4 84.2742 55.4ZM105.105 24.2C103.605 24.2 102.372 23.7667 101.405 22.9C100.472 22 100.005 20.9 100.005 19.6C100.005 18.2667 100.472 17.1667 101.405 16.3C102.372 15.4 103.605 14.95 105.105 14.95C106.572 14.95 107.772 15.4 108.705 16.3C109.672 17.1667 110.155 18.2667 110.155 19.6C110.155 20.9 109.672 22 108.705 22.9C107.772 23.7667 106.572 24.2 105.105 24.2ZM109.355 27.1V55H100.805V27.1H109.355ZM128.101 47L134.151 27.1H143.251L133.351 55H122.801L112.901 27.1H122.051L128.101 47ZM173.15 40.6C173.15 41.4 173.1 42.2333 173 43.1H153.65C153.783 44.8333 154.333 46.1667 155.3 47.1C156.3 48 157.517 48.45 158.95 48.45C161.083 48.45 162.567 47.55 163.4 45.75H172.5C172.033 47.5833 171.183 49.2333 169.95 50.7C168.75 52.1667 167.233 53.3167 165.4 54.15C163.567 54.9833 161.517 55.4 159.25 55.4C156.517 55.4 154.083 54.8167 151.95 53.65C149.817 52.4833 148.15 50.8167 146.95 48.65C145.75 46.4833 145.15 43.95 145.15 41.05C145.15 38.15 145.733 35.6167 146.9 33.45C148.1 31.2833 149.767 29.6167 151.9 28.45C154.033 27.2833 156.483 26.7 159.25 26.7C161.95 26.7 164.35 27.2667 166.45 28.4C168.55 29.5333 170.183 31.15 171.35 33.25C172.55 35.35 173.15 37.8 173.15 40.6ZM164.4 38.35C164.4 36.8833 163.9 35.7167 162.9 34.85C161.9 33.9833 160.65 33.55 159.15 33.55C157.717 33.55 156.5 33.9667 155.5 34.8C154.533 35.6333 153.933 36.8167 153.7 38.35H164.4Z"
        fill="url(#paint2_linear_215_96)" />
    <defs>
        <linearGradient id="paint0_linear_215_96" x1="171.451" y1="11.6177" x2="169.758"
            y2="17.0029" gradientUnits="userSpaceOnUse">
            <stop stop-color="#28856F" />
            <stop offset="0.0001" stop-color="#28856F" />
            <stop offset="1" stop-color="#C04CC2" />
        </linearGradient>
        <linearGradient id="paint1_linear_215_96" x1="165.134" y1="72.6177" x2="164.843"
            y2="78.5209" gradientUnits="userSpaceOnUse">
            <stop stop-color="#28856F" />
            <stop offset="0.0001" stop-color="#28856F" />
            <stop offset="1" stop-color="#C04CC2" />
        </linearGradient>
        <linearGradient id="paint2_linear_215_96" x1="1.12753e-06" y1="37.181" x2="182.902"
            y2="29.8622" gradientUnits="userSpaceOnUse">
            <stop stop-color="#C04CC2" />
            <stop offset="1" stop-color="#28856F" />
        </linearGradient>
    </defs>
</svg>